<svg width="100" height="100" viewBox="0 0 100 100" fill="none" xmlns="http://www.w3.org/2000/svg">
<g clip-path="url(#clip0_149_281)">
<path d="M5.11875 94.4967C3.08594 94.4967 2.49492 93.5001 2.49492 92.0069C2.49492 91.5093 2.56914 90.9478 2.66055 90.3565C3.10586 87.7742 4.19297 86.2968 6.8168 86.2968C8.59141 86.2968 9.45664 86.9651 9.45664 88.1788V88.7705H11.2172C11.2367 88.7705 11.2367 88.2258 11.2367 88.1018C11.2367 86.3284 9.96133 84.6463 6.81953 84.6463C2.55039 84.6463 0.794922 86.599 0.148047 90.4272C0.0554688 90.9409 0 91.4205 0 91.9323C0 94.1886 1.0543 96.2409 4.82383 96.2409C7.68789 96.2409 9.38906 95.0651 10.3863 93.6179L8.7043 92.6641C7.61445 94.1116 6.43086 94.4967 5.11875 94.4967ZM16.6695 87.37C13.25 87.37 11.7727 88.8474 11.2738 91.7879C11.2153 92.1282 11.1839 92.4715 11.1801 92.8154C11.1801 94.7132 12.2336 96.2235 15.1527 96.2235C18.5723 96.2235 20.0695 94.6826 20.5684 91.7879C20.6238 91.4149 20.6609 91.0725 20.6609 90.7304C20.6617 88.8014 19.5719 87.37 16.6695 87.37ZM18.0926 91.7888C17.7227 93.9212 16.9289 94.5747 15.4309 94.5747C14.2305 94.5747 13.6395 94.1544 13.6395 92.894C13.6395 92.5825 13.677 92.2095 13.7504 91.7888C14.1203 89.673 14.8594 89.0195 16.3746 89.0195C17.5945 89.0195 18.2035 89.4395 18.2035 90.7153C18.2035 91.0264 18.166 91.3846 18.0926 91.7888ZM29.2566 84.8009L28.6844 87.6575C28.6477 87.9058 28.6664 87.8232 28.7781 88.0568C28.2422 87.7147 27.2805 87.4884 26.6336 87.4884C23.5656 87.4884 21.8477 88.6577 21.2938 91.9253C21.2291 92.2703 21.1981 92.6191 21.2012 92.9683C21.2012 95.3499 22.8641 96.2376 25.0996 96.2376C26.0434 96.2376 26.9668 96.2541 27.6867 95.7413L27.8707 96.7093H29.6453L31.7148 84.8009H29.2566ZM27.5012 94.1228C26.6703 94.5418 25.8578 94.6365 25.359 94.6365C24.0098 94.6365 23.6402 94.0448 23.6402 93.0963C23.6402 92.7381 23.6957 92.319 23.7703 91.8665C24.1945 89.3928 25.1375 88.9563 26.3574 88.9563C27.1512 88.9563 27.7605 89.0658 28.3348 89.3309L27.5012 94.1228ZM37.1117 87.37C33.7289 87.37 32.141 88.7228 31.6043 91.7879C31.548 92.1618 31.5109 92.52 31.5109 92.8621C31.5109 94.9628 32.7867 96.2235 35.5945 96.2235C37.7754 96.2235 39.4031 95.4604 40.2711 94.0599L38.4043 93.4219C37.8691 94.106 37.1484 94.573 35.873 94.573C34.5059 94.573 33.9512 94.2632 33.9512 93.236C33.9512 93.0334 33.9699 92.7391 34.007 92.7391H40.6773C40.7711 91.9451 40.8805 91.384 40.8805 90.9186C40.8805 89.3635 40.1789 87.3697 37.1117 87.3697V87.37ZM38.3863 91.1521H34.3207C34.7281 90.3581 35.4105 89.1293 36.8156 89.1293C37.9055 89.1293 38.4422 89.6658 38.4422 90.5837C38.441 90.7393 38.4242 91.1521 38.3863 91.1521ZM47.9922 87.1825L48.2137 85.5949H43.0016L42.7809 87.1825H44.148L42.6707 95.1213H41.3016L41.0812 96.7093H46.2922L46.5148 95.1213H45.1465L46.6242 87.1825H47.9922ZM58.582 89.5641L59.248 87.9765H57.4555L56.1629 88.2011C55.4418 87.813 54.4621 87.5216 53.5391 87.5216C50.8953 87.5216 48.6418 88.5965 48.6418 91.0399C48.6418 91.7254 48.9371 92.2786 49.2875 92.6526C48.7344 92.9009 48.2535 93.3169 48.2535 93.8781C48.2535 94.1267 48.3637 94.3813 48.5863 94.6142C47.4766 95.1753 46.7949 96.1051 46.7949 97.1934C46.7949 99.2952 49.4 99.7434 51.3957 99.7434C53.9086 99.7434 56.9031 99.26 56.9031 96.5679C56.9031 95.6502 56.2195 94.9332 54.2422 94.6221L50.6758 94.0609C50.2695 93.9981 50.177 93.8892 50.177 93.7337C50.177 93.5001 50.3449 93.3765 50.6207 93.3765L50.8613 93.4074C51.3418 93.5005 51.8965 93.5478 52.4688 93.5478C55.0383 93.5478 57.3293 92.6137 57.3293 90.1864C57.3293 89.8437 57.2559 89.6118 57.0711 89.2378C57.3848 89.3628 57.7922 89.5651 57.957 89.5651H58.582V89.5641ZM53.5012 96.0051C54.2027 96.1146 54.4426 96.332 54.4426 96.7211C54.4426 97.9818 52.8348 98.1374 51.6711 98.1374C49.8969 98.1374 49.232 97.7802 49.232 96.9856C49.232 96.285 49.4715 95.9591 50.027 95.4604L53.5012 96.0051ZM52.7422 91.9293C51.6703 91.9293 51.0789 91.603 51.0789 90.8242C51.0789 89.673 51.8738 89.0037 53.2598 89.0037C54.3688 89.0037 54.9051 89.3928 54.9051 90.1542C54.9051 91.306 54.1281 91.9293 52.7422 91.9293ZM65.1473 87.37C64.1121 87.37 63.1891 87.7976 62.0426 88.5593L61.8766 87.9765H59.843L58.4203 96.709H60.8781L61.9504 90.0868C62.6715 89.7135 63.5578 89.1714 64.3156 89.1714C65.2391 89.1714 65.5727 89.5467 65.5727 90.2621C65.5727 90.4334 65.5531 90.9409 65.516 91.1274L64.6117 96.709H67.0699L67.9742 91.082C68.0117 90.8189 68.0484 90.3851 68.0484 90.1367C68.0496 88.6567 67.2168 87.37 65.1473 87.37ZM72.7176 94.5214L72.7363 94.3076L73.8074 87.9765H69.723L69.4656 89.5641H71.257C71.109 89.5641 71.0168 89.7033 70.9988 89.8286L70.2594 94.0452C70.2227 94.2481 70.2047 94.6704 70.2047 94.8404C70.2047 95.9295 70.9062 96.7093 72.3469 96.7093H73.6039L73.8812 95.1213H73.0871C72.809 95.1213 72.7176 94.7079 72.7176 94.5214ZM74.3063 84.8009H71.9039C71.7559 84.8009 71.7559 84.3427 71.7379 84.4983L71.4043 86.7355C71.3852 86.8763 71.3852 87.1828 71.5332 87.1828H73.9367C74.0848 87.1828 74.0848 86.6388 74.1027 86.4974L74.4363 84.7706C74.4551 84.6151 74.4551 84.8009 74.3063 84.8009ZM79.3184 94.5744C78.7094 94.5744 78.4133 94.3563 78.4133 93.8902L78.432 93.8583L79.2082 89.5641H82.0168L82.8664 87.9765H79.4664L80.0387 84.4825L77.4527 85.1788L76.9898 87.9765H75.4934L75.2352 89.5641H76.9719C76.8059 90.3581 76.6391 89.843 76.6211 89.9993L75.9555 93.7646C75.9187 93.9363 75.9188 94.0606 75.9188 94.2155C75.9188 95.6939 77.2121 96.2472 78.766 96.2472C80.2066 96.2472 81.3711 95.8929 82.2773 95.2539L81.1309 94.0665C80.5566 94.3615 80.1691 94.5744 79.3184 94.5744ZM88.3367 87.37C84.9551 87.37 83.366 88.7228 82.8297 91.7879C82.7742 92.1618 82.7371 92.52 82.7371 92.8621C82.7371 94.9628 84.0121 96.2235 86.8207 96.2235C89.0016 96.2235 90.6293 95.4604 91.4965 94.0599L89.6305 93.4219C89.0953 94.106 88.3738 94.573 87.098 94.573C85.7316 94.573 85.1762 94.2632 85.1762 93.236C85.1762 93.0334 85.1961 92.7391 85.2332 92.7391H91.9039C91.9961 91.9451 92.107 91.384 92.107 90.9186C92.107 89.3635 91.4051 87.3697 88.3367 87.3697V87.37ZM89.6125 91.1521H85.5469C85.9531 90.3581 86.6359 89.1293 88.0418 89.1293C89.1316 89.1293 89.6684 89.6658 89.6684 90.5837C89.6672 90.7393 89.6492 91.1521 89.6125 91.1521ZM98.9082 87.3697C98.0211 87.3697 97.1895 87.7979 96.3574 88.4656L96.2098 87.9765H94.1777L92.7543 96.709H95.2309L96.3207 89.9466C96.968 89.6207 97.707 89.3421 98.4094 89.3421C98.8535 89.3421 99.2777 89.2826 99.684 89.329L100 87.5249C99.6285 87.4628 99.259 87.37 98.9082 87.37V87.3697ZM36.1484 78.5461C30.5547 76.5102 25.3203 71.3358 25.3078 66.0414C25.2926 60.2691 29.6371 55.3684 35.0406 52.1478C34.391 54.2143 34.0367 56.1045 35.6461 57.953C37.1422 59.6715 39.7625 60.5066 42.2367 60.0533C48.018 58.9877 48.2832 53.6364 44.8559 50.5187C41.4672 47.4312 38.1891 43.9438 39.4789 39.4664C40.1246 37.222 41.7613 35.1196 43.8348 33.6168C42.241 37.1434 46.7699 40.6212 49.7539 42.3536C54.9301 45.3591 60.6094 47.6306 65.3687 51.1538C70.375 54.8566 74.0719 59.8632 73.3254 65.6701C72.5164 71.964 66.5766 76.3414 59.9141 78.5514C73.993 75.9349 88.5402 66.7344 88.8383 53.5874C89.0852 42.7713 80.273 34.4473 69.357 29.6818L68.7867 29.4197C69.0863 30.0318 69.1844 30.5524 69.173 31.0185C69.2707 30.6748 69.3371 30.3215 69.3559 29.9571C69.3532 30.39 69.286 30.821 69.1559 31.2398L69.173 31.0185C69.011 31.5927 68.7379 32.1406 68.3648 32.6403L68.525 32.4953C66.3473 35.5367 60.4516 36.1971 57.5391 33.0478C52.857 27.982 57.6371 22.5202 58.3059 17.1558C59.143 10.4326 54.1355 3.90576 47.927 0C51.3465 4.65764 46.8414 10.8197 43.2371 14.2647C39.7422 17.604 35.4918 20.3922 31.6336 23.4263C27.4891 26.6852 23.5047 30.1179 20.098 33.9428C13.2848 41.5984 9.11367 51.2268 12.1789 60.7776C15.2422 70.3218 25.0609 76.3974 36.1488 78.5458L36.1484 78.5461Z" fill="#EE4323"/>
</g>
<defs>
<clipPath id="clip0_149_281">
<rect width="100" height="100" fill="white"/>
</clipPath>
</defs>
</svg>
