<svg width="152" height="152" viewBox="0 0 152 152" fill="none" xmlns="http://www.w3.org/2000/svg">
<path d="M46.5277 108.41H42.4127C42.2671 101.464 41.8664 94.9338 41.2111 88.8148H41.1746L34.9093 108.41H31.7763L25.5484 88.8148H25.5126C25.0506 94.6897 24.7596 101.221 24.6387 108.41H20.8878C21.1296 99.6683 21.7371 91.4731 22.708 83.8235H27.8083L33.7444 101.889H33.7809L39.7536 83.8235H44.6336C45.7023 92.7836 46.3337 100.98 46.5277 108.41ZM64.374 90.27C62.6986 99.3622 60.488 105.969 57.7446 110.092C55.6071 113.267 53.2653 114.855 50.7152 114.855C50.0353 114.855 49.1964 114.65 48.2024 114.243V112.051C48.6882 112.121 49.2584 112.161 49.9136 112.161C51.1048 112.161 52.0622 111.833 52.7922 111.176C53.6653 110.376 54.1018 109.477 54.1018 108.482C54.1018 107.8 53.7615 106.405 53.0824 104.293L48.5666 90.2692H52.6093L55.8505 100.758C56.5788 103.139 56.8826 104.802 56.7609 105.749C58.5334 101.015 59.7715 95.8538 60.4768 90.2684H64.374V90.27Z" fill="#5D87A1"/>
<path d="M119.15 108.41H107.461V83.8233H111.393V105.383H119.15V108.41ZM104.401 109.004L99.8813 106.773C100.282 106.444 100.665 106.088 101.01 105.675C102.932 103.418 103.89 100.081 103.89 95.6604C103.89 87.5265 100.698 83.4575 94.3119 83.4575C91.1804 83.4575 88.7376 84.4897 86.9906 86.5548C85.071 88.8131 84.1128 92.1385 84.1128 96.5351C84.1128 100.857 84.9621 104.027 86.6614 106.038C88.216 107.86 90.5594 108.772 93.6932 108.772C94.8621 108.772 95.9348 108.629 96.9121 108.34L102.796 111.766L104.401 109.004ZM89.7594 103.49C88.7639 101.888 88.2661 99.3166 88.2661 95.7709C88.2661 89.5804 90.1467 86.4816 93.9119 86.4816C95.88 86.4816 97.3224 87.2227 98.2448 88.7018C99.2388 90.3056 99.739 92.8542 99.739 96.3506C99.739 102.592 97.8568 105.713 94.094 105.713C92.1251 105.714 90.6826 104.975 89.7594 103.49ZM82.3992 101.595C82.3992 103.68 81.6343 105.39 80.1059 106.73C78.576 108.064 76.5244 108.733 73.9536 108.733C71.549 108.733 69.2175 107.965 66.9608 106.437L68.0176 104.326C69.9594 105.298 71.7175 105.781 73.296 105.781C74.7774 105.781 75.9352 105.453 76.7749 104.802C77.6138 104.148 78.114 103.231 78.114 102.072C78.114 100.611 77.0954 99.3628 75.2267 98.3171C73.5035 97.3708 70.0572 95.3924 70.0572 95.3924C68.1893 94.0311 67.2542 92.5695 67.2542 90.1617C67.2542 88.169 67.9516 86.5603 69.3471 85.3365C70.7442 84.108 72.5469 83.4957 74.7567 83.4957C77.0389 83.4957 79.1135 84.1072 80.9822 85.3174L80.0344 87.4295C78.436 86.7504 76.8584 86.4108 75.3022 86.4108C74.0419 86.4108 73.0686 86.7138 72.3919 87.3221C71.7096 87.928 71.2889 88.7033 71.2889 89.6544C71.2889 91.108 72.329 92.3723 74.2486 93.4387C75.9948 94.3865 79.527 96.3991 79.527 96.3991C81.4426 97.7581 82.3992 99.2061 82.3992 101.595Z" fill="#F8981D"/>
<path d="M124.087 75.5885C121.709 75.528 119.868 75.7674 118.323 76.421C117.877 76.5992 117.168 76.5991 117.106 77.1629C117.347 77.4015 117.375 77.7864 117.584 78.1156C117.94 78.7096 118.561 79.5087 119.128 79.9254C119.751 80.4025 120.376 80.8748 121.031 81.2907C122.186 82.0056 123.496 82.4215 124.622 83.134C125.278 83.5482 125.93 84.0842 126.587 84.5303C126.91 84.7681 127.116 85.1537 127.535 85.3024V85.2118C127.325 84.9446 127.266 84.5581 127.06 84.2607L126.168 83.4003C125.306 82.2426 124.235 81.2319 123.079 80.4017C122.128 79.7465 120.048 78.8559 119.662 77.7601L119.602 77.6997C120.255 77.6384 121.031 77.4015 121.652 77.2194C122.663 76.953 123.584 77.0134 124.621 76.7471C125.098 76.6278 125.571 76.4783 126.05 76.3312V76.0632C125.512 75.528 125.129 74.8171 124.564 74.3114C123.051 73.0049 121.385 71.7271 119.662 70.6575C118.74 70.062 117.553 69.6787 116.571 69.1721C116.218 68.9932 115.621 68.905 115.413 68.6076C114.88 67.9539 114.58 67.0935 114.194 66.3198C113.335 64.6873 112.501 62.8759 111.76 61.1495C111.224 59.9918 110.898 58.8356 110.244 57.7644C107.183 52.715 103.858 49.6568 98.7482 46.6549C97.65 46.0299 96.3436 45.7635 94.948 45.4359L92.7191 45.3182C92.2436 45.1099 91.7673 44.5445 91.3522 44.2774C89.6569 43.2086 85.2921 40.8923 84.0453 43.9505C83.2421 45.8836 85.2333 47.7841 85.9171 48.7646C86.4221 49.4452 87.0765 50.2198 87.4296 50.9927C87.6387 51.4976 87.6975 52.0336 87.9067 52.5671C88.3822 53.8744 88.8267 55.3288 89.4517 56.5486C89.7777 57.1704 90.1332 57.8241 90.5499 58.3871C90.7884 58.7163 91.2035 58.8618 91.2941 59.3985C90.8799 59.9902 90.8472 60.8832 90.6095 61.6259C89.5408 64.9823 89.9582 69.1403 91.4731 71.607C91.947 72.3497 93.0777 73.9846 94.5902 73.358C95.9293 72.8236 95.6327 71.1307 96.0175 69.6461C96.1058 69.2874 96.0477 69.0521 96.2259 68.8167V68.8747C96.6402 69.7057 97.0584 70.5065 97.4425 71.3398C98.3641 72.7942 99.9688 74.3098 101.305 75.3173C102.017 75.8549 102.581 76.7741 103.472 77.1025V77.0134H103.414C103.233 76.7471 102.969 76.6278 102.732 76.421C102.196 75.8859 101.603 75.2322 101.187 74.639C99.9418 72.9747 98.8396 71.1323 97.8616 69.231C97.3829 68.3086 96.9702 67.3003 96.5845 66.3795C96.4048 66.024 96.4048 65.4881 96.1066 65.3091C95.6597 65.962 95.0084 66.5274 94.6824 67.3273C94.117 68.6068 94.0582 70.1804 93.8483 71.8169L93.7314 71.8742C92.7851 71.6364 92.4559 70.6575 92.0965 69.8266C91.2067 67.7162 91.0572 64.3287 91.8293 61.8938C92.036 61.2712 92.9306 59.3103 92.5736 58.7171C92.3947 58.1485 91.7999 57.8249 91.4739 57.3772C91.0906 56.8142 90.6707 56.1017 90.4035 55.4767C89.6911 53.814 89.3324 51.9715 88.5651 50.3096C88.2064 49.5351 87.5838 48.7336 87.0797 48.0203C86.5135 47.2187 85.8909 46.6542 85.4432 45.7039C85.2953 45.3771 85.0877 44.8427 85.3255 44.4873C85.3835 44.2487 85.5044 44.1597 85.7414 44.1C86.1262 43.7748 87.226 44.1883 87.6117 44.3672C88.713 44.8125 89.6338 45.2284 90.553 45.8518C90.9689 46.15 91.415 46.7146 91.9486 46.8633H92.5736C93.5222 47.07 94.5918 46.9205 95.4848 47.1893C97.0584 47.695 98.4842 48.437 99.7628 49.2377C103.654 51.7052 106.862 55.2111 109.028 59.3985C109.384 60.0808 109.535 60.7058 109.859 61.4175C110.485 62.8743 111.259 64.3597 111.88 65.7855C112.504 67.181 113.099 68.606 113.99 69.7653C114.435 70.3888 116.221 70.7156 117.021 71.0424C117.614 71.3088 118.536 71.5458 119.071 71.8726C120.081 72.4952 121.088 73.2101 122.038 73.8947C122.511 74.251 123.998 74.9937 124.087 75.5885ZM93.7855 49.7737C93.3753 49.7694 92.9665 49.8197 92.5696 49.9232V49.9828H92.6269C92.8662 50.4575 93.2821 50.7867 93.5787 51.201C93.8181 51.6773 94.0256 52.1497 94.2602 52.6252L94.3174 52.5663C94.7365 52.2697 94.9448 51.7942 94.9448 51.0809C94.7643 50.871 94.7365 50.6658 94.5862 50.4575C94.4113 50.1601 94.0256 50.0122 93.7855 49.7737Z" fill="#5D87A1"/>
<path d="M126.916 108.406H127.531V105.394H126.608L125.855 107.449L125.037 105.394H124.148V108.406H124.729V106.114H124.762L125.619 108.406H126.062L126.916 106.114V108.406ZM121.958 108.406H122.609V105.904H123.462V105.393H121.07V105.904H121.956L121.958 108.406Z" fill="#F8981D"/>
</svg>
