<svg width="100" height="100" viewBox="0 0 100 100" fill="none" xmlns="http://www.w3.org/2000/svg">
<g clip-path="url(#clip0_146_242)">
<path d="M99.5911 56.3489C103.09 28.9538 83.7439 3.90831 56.3988 0.408938C29.0538 -3.09043 3.90831 16.2561 0.408938 43.6012C-3.09043 70.9462 16.2561 96.0417 43.6012 99.5911C70.9962 103.09 96.0417 83.7439 99.5911 56.3489Z" fill="#FF6C37"/>
<path d="M68.0467 32.1031L46.9505 53.1993L41.0016 47.2504C61.7478 26.5041 63.7975 28.3038 68.0467 32.1031Z" fill="white"/>
<path d="M46.9506 53.6994C46.8006 53.6994 46.7007 53.6494 46.6007 53.5494L40.6018 47.6005C40.4018 47.4005 40.4018 47.1005 40.6018 46.9006C61.698 25.8044 63.8976 27.804 68.3468 31.8033C68.4467 31.9033 68.4967 32.0033 68.4967 32.1532C68.4967 32.3032 68.4467 32.4032 68.3468 32.5032L47.2506 53.5494C47.2006 53.6494 47.0506 53.6994 46.9506 53.6994ZM41.7016 47.2505L46.9506 52.4996L67.2969 32.1532C63.5976 28.8538 61.0981 27.854 41.7016 47.2505Z" fill="#FF6C37"/>
<path d="M52.9995 59.2482L47.2505 53.4993L68.3467 32.4031C73.9957 38.102 65.5472 47.3504 52.9995 59.2482Z" fill="white"/>
<path d="M52.9994 59.7481C52.8494 59.7481 52.7495 59.6981 52.6495 59.5981L46.9005 53.8491C46.8005 53.7491 46.8005 53.6492 46.8005 53.4992C46.8005 53.3492 46.8505 53.2492 46.9505 53.1492L68.0467 32.053C68.2467 31.8531 68.5466 31.8531 68.7466 32.053C70.0463 33.2528 70.7462 34.9525 70.6962 36.7022C70.5962 42.2512 64.2974 49.2999 53.3993 59.5981C53.2494 59.6981 53.0994 59.7481 52.9994 59.7481ZM47.9503 53.4992C51.1498 56.7486 52.4995 58.0484 52.9994 58.5483C61.3979 50.5497 69.5464 42.3512 69.5964 36.7022C69.6464 35.4024 69.1465 34.1027 68.2967 33.1029L47.9503 53.4992Z" fill="#FF6C37"/>
<path d="M41.1016 47.4004L45.3509 51.6497C45.4508 51.7497 45.4508 51.8496 45.3509 51.9496C45.3009 51.9996 45.3009 51.9996 45.2509 51.9996L36.4525 53.8993C36.0025 53.9493 35.6026 53.6493 35.5026 53.1994C35.4526 52.9494 35.5526 52.6995 35.7026 52.5495L40.8017 47.4504C40.9017 47.3505 41.0516 47.3005 41.1016 47.4004Z" fill="white"/>
<path d="M36.3025 54.3991C35.5526 54.3991 35.0027 53.7992 35.0027 53.0494C35.0027 52.6994 35.1527 52.3495 35.4026 52.0995L40.5017 47.0005C40.8016 46.7505 41.2016 46.7505 41.5015 47.0005L45.7507 51.2497C46.0507 51.4996 46.0507 51.9496 45.7507 52.2495C45.6508 52.3495 45.5508 52.3995 45.4008 52.4495L36.6024 54.3491C36.5024 54.3491 36.4024 54.3991 36.3025 54.3991ZM40.9516 47.9503L36.0525 52.8494C35.9525 52.9494 35.9025 53.0994 36.0025 53.2493C36.0525 53.3993 36.2025 53.4493 36.3524 53.3993L44.601 51.5996L40.9516 47.9503Z" fill="#FF6C37"/>
<path d="M79.1947 20.4054C75.9953 17.3059 70.8462 17.4059 67.7468 20.6553C64.6473 23.9047 64.7473 29.0038 67.9967 32.1032C70.6463 34.6528 74.6455 35.1027 77.795 33.203L72.096 27.5041L79.1947 20.4054Z" fill="white"/>
<path d="M73.5958 34.8527C68.8466 34.8527 64.9973 31.0034 64.9973 26.2542C64.9973 21.5051 68.8466 17.6558 73.5958 17.6558C75.7954 17.6558 77.945 18.5056 79.5447 20.0553C79.6447 20.1553 79.6947 20.2553 79.6947 20.4053C79.6947 20.5552 79.6447 20.6552 79.5447 20.7552L72.7959 27.504L78.095 32.803C78.2949 33.003 78.2949 33.3029 78.095 33.5029C78.045 33.5529 78.045 33.5529 77.995 33.6029C76.6952 34.4027 75.1455 34.8527 73.5958 34.8527ZM73.5958 18.7056C69.3965 18.7056 65.9971 22.105 66.0471 26.3042C66.0471 30.5034 69.4465 33.9028 73.6458 33.8528C74.7956 33.8528 75.9453 33.6029 76.9952 33.053L71.7461 27.8539C71.6461 27.7539 71.5961 27.654 71.5961 27.504C71.5961 27.354 71.6461 27.254 71.7461 27.154L78.4449 20.4553C77.0951 19.3055 75.3954 18.7056 73.5958 18.7056Z" fill="#FF6C37"/>
<path d="M79.3448 20.5553L79.2448 20.4553L72.0961 27.5041L77.7451 33.153C78.295 32.8031 78.8449 32.4032 79.2948 31.9532C82.4942 28.8038 82.4942 23.7047 79.3448 20.5553Z" fill="white"/>
<path d="M77.795 33.7028C77.645 33.7028 77.545 33.6528 77.445 33.5528L71.746 27.8538C71.6461 27.7539 71.5961 27.6539 71.5961 27.5039C71.5961 27.3539 71.6461 27.2539 71.746 27.154L78.8448 20.0552C79.0447 19.8553 79.3447 19.8553 79.5446 20.0552L79.6946 20.1552C83.044 23.5046 83.044 28.9037 79.7446 32.303C79.2447 32.8029 78.6948 33.2529 78.0949 33.6028C77.9449 33.6528 77.8449 33.7028 77.795 33.7028ZM72.7959 27.5039L77.8449 32.553C78.2449 32.303 78.6448 31.9531 78.9447 31.6532C81.7942 28.8037 81.9442 24.1545 79.1947 21.155L72.7959 27.5039Z" fill="#FF6C37"/>
<path d="M68.8966 33.0031C67.6968 31.8033 65.7472 31.8033 64.5474 33.0031L45.7008 51.8497L48.8502 54.9991L68.7966 37.5023C70.0964 36.4025 70.1964 34.4528 69.0966 33.1531C68.9966 33.1031 68.9466 33.0531 68.8966 33.0031Z" fill="white"/>
<path d="M48.8002 55.499C48.6502 55.499 48.5503 55.449 48.4503 55.349L45.3009 52.1996C45.1009 51.9996 45.1009 51.6996 45.3009 51.4997L64.1475 32.6531C65.5472 31.2533 67.7968 31.2533 69.1965 32.6531C70.5963 34.0528 70.5963 36.3024 69.1965 37.7022C69.1466 37.7522 69.0966 37.8022 69.0466 37.8521L49.1002 55.349C49.0502 55.449 48.9502 55.499 48.8002 55.499ZM46.4007 51.8496L48.8502 54.2992L68.4467 37.1023C69.5465 36.2024 69.6465 34.5527 68.7466 33.4529C67.8468 32.3531 66.1971 32.2532 65.0973 33.153C65.0473 33.203 64.9973 33.253 64.8973 33.303L46.4007 51.8496Z" fill="#FF6C37"/>
<path d="M31.2534 73.2957C31.0535 73.3956 30.9535 73.5956 31.0035 73.7956L31.8533 77.3949C32.0533 77.8948 31.7533 78.4947 31.2034 78.6447C30.8035 78.7947 30.3536 78.6447 30.1036 78.3448L24.6046 72.8957L42.5514 54.949L48.7503 55.049L52.9495 59.2482C51.9497 60.098 45.9008 65.947 31.2534 73.2957Z" fill="white"/>
<path d="M30.8535 79.1448C30.4535 79.1448 30.0536 78.9948 29.8036 78.6949L24.3546 73.2458C24.2546 73.1458 24.2047 73.0459 24.2047 72.8959C24.2047 72.7459 24.2546 72.6459 24.3546 72.546L42.3014 54.5992C42.4014 54.4992 42.5513 54.4492 42.6513 54.4492L48.8502 54.5492C49.0002 54.5492 49.1002 54.5992 49.2001 54.6992L53.3994 58.8984C53.4994 58.9984 53.5494 59.1484 53.5494 59.2983C53.5494 59.4483 53.4994 59.5483 53.3494 59.6483L52.9995 59.9482C47.7004 64.5974 40.5017 69.2466 31.5533 73.6957L32.4032 77.2451C32.5531 77.895 32.2532 78.5949 31.6533 78.9448C31.3534 79.0948 31.1034 79.1448 30.8535 79.1448ZM25.3544 72.8959L30.5035 77.995C30.6535 78.2449 30.9534 78.3449 31.2034 78.1949C31.4533 78.045 31.5533 77.745 31.4034 77.4951L30.5535 73.8957C30.4535 73.4458 30.6535 73.0459 31.0534 72.8459C39.9018 68.3967 47.0505 63.7975 52.2996 59.2484L48.6003 55.549L42.8513 55.449L25.3544 72.8959Z" fill="#FF6C37"/>
<path d="M20.3554 77.195L24.6546 72.8958L31.0534 79.2946L20.8553 78.5947C20.4053 78.5447 20.1054 78.1448 20.1554 77.6949C20.1554 77.4949 20.2054 77.295 20.3554 77.195Z" fill="white"/>
<path d="M31.0534 79.7446L20.8053 79.0447C20.0554 78.9947 19.5555 78.3449 19.6055 77.595C19.6555 77.2951 19.7555 76.9951 20.0054 76.7951L24.3046 72.4959C24.5046 72.296 24.8046 72.296 25.0045 72.4959L31.4034 78.8948C31.5533 79.0447 31.6033 79.2447 31.5033 79.4447C31.4034 79.6446 31.2534 79.7446 31.0534 79.7446ZM24.6546 73.5957L20.7053 77.545C20.5553 77.645 20.5553 77.8949 20.7053 77.9949C20.7553 78.0449 20.8053 78.0949 20.9053 78.0949L29.7537 78.6948L24.6546 73.5957Z" fill="#FF6C37"/>
<path d="M40.8017 57.2486C40.5017 57.2486 40.3018 56.9986 40.3018 56.7487C40.3018 56.5987 40.3517 56.4987 40.4517 56.3988L45.3009 51.5496C45.5008 51.3497 45.8008 51.3497 46.0007 51.5496L49.1502 54.6991C49.3001 54.849 49.3501 54.999 49.3001 55.199C49.2501 55.3489 49.1002 55.4989 48.9002 55.5489L40.9017 57.2486C40.8517 57.2486 40.8017 57.2486 40.8017 57.2486ZM45.6508 52.5994L42.3514 55.8988L47.7504 54.7491L45.6508 52.5994Z" fill="#FF6C37"/>
<path d="M48.7503 55.0489L43.2512 56.2487C42.8513 56.3487 42.4514 56.0987 42.3514 55.6988C42.3014 55.4488 42.3514 55.1989 42.5514 54.9989L45.6008 51.9495L48.7503 55.0489Z" fill="white"/>
<path d="M43.1513 56.7487C42.4514 56.7487 41.9015 56.1988 41.9015 55.4989C41.9015 55.149 42.0515 54.849 42.2514 54.5991L45.3009 51.5496C45.5008 51.3497 45.8008 51.3497 46.0007 51.5496L49.1502 54.6991C49.3002 54.849 49.3501 54.999 49.3002 55.199C49.2502 55.3489 49.1002 55.4989 48.9002 55.5489L43.4012 56.7487C43.3012 56.7487 43.2013 56.7487 43.1513 56.7487ZM45.6508 52.5994L42.9513 55.299C42.8513 55.3989 42.8513 55.4989 42.9013 55.5989C42.9513 55.6989 43.0513 55.7489 43.2013 55.7489L47.8004 54.7491L45.6508 52.5994Z" fill="#FF6C37"/>
<path d="M79.3947 25.3544C79.2947 25.0545 78.9447 24.9045 78.6448 25.0045C78.3448 25.1045 78.1949 25.4544 78.2949 25.7543C78.2949 25.8043 78.3448 25.8543 78.3448 25.9043C78.6448 26.5042 78.5448 27.2541 78.1449 27.804C77.9449 28.0539 77.9949 28.4039 78.1949 28.6038C78.4448 28.8038 78.7948 28.7538 78.9947 28.5038C79.7446 27.554 79.8946 26.3542 79.3947 25.3544Z" fill="#FF6C37"/>
</g>
<defs>
<clipPath id="clip0_146_242">
<rect width="100" height="100" fill="white"/>
</clipPath>
</defs>
</svg>
